:FULLY-SPECIFIED
:FORCE-ALL-JOINTS-BE-3DOF
:DEGREES
1020
root 0.23242 13.5311 -35.4549 372.122 -28.6985 342.136
lfemur -69.8197 36.3041 -3.54816
ltibia 82.3154 0 0
lfoot -12.7107 -8.76988 0
ltoes -6.19007 0 0
rfemur 10.4146 -8.91194 8.48071
rtibia 36.1133 0 0
rfoot -23.2932 -26.6169 0
rtoes -31.6638 0 0
lowerback 10.3743 -0.83436 5.60301
upperback -1.64567 0.128082 8.21063
thorax -7.63622 -0.0221113 5.61861
lowerneck -5.18798 8.2553 3.74638
upperneck 7.91924 10.8329 -1.05338
head 3.78297 5.43051 -0.440787
lclavicle -7.19457e-14 -3.93412e-15 0
lhumerus 85.0604 -9.74247 26.0399
lradius 98.0304 0 0
lwrist 10.519 0 0
lhand -36.7339 31.9896 0
lfingers 7.12502 0 0
lthumb -9.81824 61.7491 0
rclavicle -7.19457e-14 -3.93412e-15 0
rhumerus -77.5103 22.4456 -94.7871
rradius 112.418 0 0
rwrist -63.1194 0 0
rhand -10.1497 -25.4112 0
rfingers 7.12502 0 0
rthumb 15.8395 -54.7834 0
1021
root 0.226989 13.5233 -35.4592 372.125 -28.74 342.094
lfemur -69.8704 36.3832 -3.48107
ltibia 82.4009 0 0
lfoot -12.7517 -8.88799 0
ltoes -6.18623 0 0
rfemur 10.5074 -8.96059 8.46018
rtibia 35.9904 0 0
rfoot -23.4217 -26.7206 0
rtoes -31.6628 0 0
lowerback 10.3554 -0.836237 5.61277
upperback -1.64722 0.125802 8.21814
thorax -7.62685 -0.0236399 5.62088
lowerneck -5.12725 8.26569 3.7659
upperneck 7.90626 10.8496 -1.0835
head 3.77034 5.43859 -0.45592
lclavicle -7.11042e-14 -4.59124e-15 0
lhumerus 85.1146 -9.14016 26.1859
lradius 97.9019 0 0
lwrist 10.3688 0 0
lhand -36.7269 31.965 0
lfingers 7.12502 0 0
lthumb -9.81153 61.7251 0
rclavicle -7.11042e-14 -4.59124e-15 0
rhumerus -77.57 22.4756 -94.8161
rradius 112.44 0 0
rwrist -63.1462 0 0
rhand -10.1503 -25.3748 0
rfingers 7.12502 0 0
rthumb 15.8389 -54.747 0
1022
root 0.221281 13.5153 -35.4641 372.129 -28.7823 342.051
lfemur -69.9224 36.464 -3.40996
ltibia 82.4862 0 0
lfoot -12.7916 -9.01316 0
ltoes -6.18004 0 0
rfemur 10.6026 -9.01194 8.44071
rtibia 35.863 0 0
rfoot -23.5557 -26.829 0
rtoes -31.6619 0 0
lowerback 10.336 -0.83841 5.62453
upperback -1.6486 0.12335 8.22595
thorax -7.61699 -0.0253397 5.62234
lowerneck -5.06299 8.27664 3.78625
upperneck 7.89173 10.8673 -1.11552
head 3.75668 5.44711 -0.471948
lclavicle -7.0158e-14 -5.28577e-15 0
lhumerus 85.1535 -8.56362 26.3453
lradius 97.747 0 0
lwrist 10.2238 0 0
lhand -36.7133 31.9425 0
lfingers 7.12502 0 0
lthumb -9.79834 61.7034 0
rclavicle -7.0158e-14 -5.28577e-15 0
rhumerus -77.6317 22.5063 -94.8466
rradius 112.462 0 0
rwrist -63.1752 0 0
rhand -10.1512 -25.3371 0
rfingers 7.12502 0 0
rthumb 15.838 -54.7094 0
1023
root 0.215351 13.5072 -35.4694 372.133 -28.8251 342.006
lfemur -69.9754 36.546 -3.33566
ltibia 82.571 0 0
lfoot -12.8304 -9.14382 0
ltoes -6.17166 0 0
rfemur 10.6991 -9.06546 8.4222
rtibia 35.7326 0 0
rfoot -23.694 -26.9409 0
rtoes -31.6608 0 0
lowerback 10.3162 -0.840832 5.63792
upperback -1.64982 0.120744 8.23391
thorax -7.60673 -0.0271886 5.62304
lowerneck -4.99557 8.28801 3.80726
upperneck 7.87565 10.8858 -1.14924
head 3.74206 5.45598 -0.488778
lclavicle -6.91143e-14 -6.01351e-15 0
lhumerus 85.1778 -8.01205 26.5174
lradius 97.5673 0 0
lwrist 10.0844 0 0
lhand -36.6933 31.922 0
lfingers 7.12502 0 0
lthumb -9.77912 61.6839 0
rclavicle -6.91143e-14 -6.01351e-15 0
rhumerus -77.695 22.5376 -94.8786
rradius 112.485 0 0
rwrist -63.206 0 0
rhand -10.1522 -25.2986 0
rfingers 7.12502 0 0
rthumb 15.8371 -54.6709 0
1024
root 0.209253 13.4991 -35.475 372.138 -28.8679 341.959
lfemur -70.0291 36.6285 -3.25903
ltibia 82.6551 0 0
lfoot -12.8684 -9.27843 0
ltoes -6.16127 0 0
rfemur 10.7964 -9.12062 8.40456
rtibia 35.6007 0 0
rfoot -23.8351 -27.0551 0
rtoes -31.6592 0 0
lowerback 10.2961 -0.843459 5.65262
upperback -1.65091 0.117999 8.24191
thorax -7.59613 -0.0291643 5.62305
lowerneck -4.92537 8.29968 3.82878
upperneck 7.85802 10.9048 -1.18448
head 3.72651 5.4651 -0.506314
lclavicle -6.79805e-14 -6.77026e-15 0
lhumerus 85.1882 -7.48462 26.7013
lradius 97.3645 0 0
lwrist 9.95072 0 0
lhand -36.6676 31.9036 0
lfingers 7.12502 0 0
lthumb -9.75429 61.6666 0
rclavicle -6.79805e-14 -6.77026e-15 0
rhumerus -77.7592 22.5694 -94.9116
rradius 112.508 0 0
rwrist -63.2384 0 0
rhand -10.1533 -25.2596 0
rfingers 7.12502 0 0
rthumb 15.836 -54.6321 0
1025
root 0.20304 13.491 -35.4807 372.143 -28.9105 341.913
lfemur -70.0829 36.7107 -3.18092
ltibia 82.7384 0 0
lfoot -12.9058 -9.41545 0
ltoes -6.14903 0 0
rfemur 10.8936 -9.17688 8.38767
rtibia 35.4686 0 0
rfoot -23.9778 -27.1702 0
rtoes -31.6569 0 0
lowerback 10.2757 -0.846245 5.66829
upperback -1.65187 0.11513 8.24982
thorax -7.58526 -0.0312448 5.62243
lowerneck -4.85278 8.3115 3.85066
upperneck 7.83885 10.9242 -1.22104
head 3.71009 5.47437 -0.524461
lclavicle -6.67638e-14 -7.5518e-15 0
lhumerus 85.1856 -6.98054 26.8965
lradius 97.1403 0 0
lwrist 9.82313 0 0
lhand -36.6365 31.8872 0
lfingers 7.12502 0 0
lthumb -9.7243 61.6516 0
rclavicle -6.67638e-14 -7.5518e-15 0
rhumerus -77.8238 22.6013 -94.9454
rradius 112.53 0 0
rwrist -63.2721 0 0
rhand -10.1546 -25.2207 0
rfingers 7.12502 0 0
rthumb 15.8348 -54.5932 0
1026
root 0.196767 13.4829 -35.4865 372.149 -28.9523 341.866
lfemur -70.1365 36.7921 -3.10218
ltibia 82.8208 0 0
lfoot -12.9426 -9.55334 0
ltoes -6.13512 0 0
rfemur 10.9898 -9.23371 8.37146
rtibia 35.3377 0 0
rfoot -24.1206 -27.2848 0
rtoes -31.6536 0 0
lowerback 10.2553 -0.849144 5.68457
upperback -1.65272 0.112154 8.25751
thorax -7.5742 -0.0334079 5.62123
lowerneck -4.77817 8.32333 3.87273
upperneck 7.81815 10.9437 -1.25873
head 3.69285 5.4837 -0.543126
lclavicle -6.54716e-14 -8.35394e-15 0
lhumerus 85.1708 -6.49899 27.102
lradius 96.8961 0 0
lwrist 9.70191 0 0
lhand -36.6006 31.873 0
lfingers 7.12502 0 0
lthumb -9.68959 61.6388 0
rclavicle -6.54716e-14 -8.35394e-15 0
rhumerus -77.8881 22.6334 -94.9797
rradius 112.552 0 0
rwrist -63.3069 0 0
rhand -10.1558 -25.1821 0
rfingers 7.12502 0 0
rthumb 15.8336 -54.5548 0
1027
root 0.190487 13.4748 -35.4922 372.155 -28.9931 341.82
lfemur -70.1894 36.872 -3.02367
ltibia 82.902 0 0
lfoot -12.9792 -9.69055 0
ltoes -6.11971 0 0
rfemur 11.0843 -9.29058 8.35581
rtibia 35.2096 0 0
rfoot -24.2623 -27.3978 0
rtoes -31.649 0 0
lowerback 10.2348 -0.852113 5.70113
upperback -1.65347 0.109087 8.26487
thorax -7.56302 -0.0356316 5.61951
lowerneck -4.70192 8.33504 3.89484
upperneck 7.79592 10.9632 -1.29736
head 3.67483 5.49298 -0.562213
lclavicle -6.41111e-14 -9.17246e-15 0
lhumerus 85.1445 -6.03917 27.3173
lradius 96.6337 0 0
lwrist 9.58734 0 0
lhand -36.5602 31.8609 0
lfingers 7.12502 0 0
lthumb -9.65059 61.6283 0
rclavicle -6.41111e-14 -9.17246e-15 0
rhumerus -77.9515 22.6654 -95.0144
rradius 112.573 0 0
rwrist -63.3424 0 0
rhand -10.1571 -25.1444 0
rfingers 7.12502 0 0
rthumb 15.8324 -54.5172 0
